<svg viewBox="0 0 128 128" xmlns="http://www.w3.org/2000/svg" xml:space="preserve" style="fill-rule:evenodd;clip-rule:evenodd;stroke-linejoin:round;stroke-miterlimit:2"><circle cx="4.437" cy="4.794" r=".42" style="fill:#91ac3b" transform="matrix(0 -19.7595 -19.4259 0 186.266 113.966)"/><circle cx="1.437" cy="4.794" r=".42" style="fill:#91ac3b" transform="matrix(0 -19.7595 -19.4259 0 127.99 54.688)"/><circle cx="2.937" cy="4.794" r=".42" style="fill:#91ac3b" transform="matrix(0 -19.7595 -19.4259 0 157.128 84.327)"/><path d="m4.005 1.968-.27-.996a.25.25 0 0 0-.054-.096 1.04 1.04 0 0 0-.738-.318 1 1 0 0 0-.324.054q-.243.083-.414.264a.3.3 0 0 0-.054.096l-.27.996c-.024.096.024.204.126.228a.186.186 0 0 0 .222-.126l.24-.876v3.054h.36V2.532h.24v1.71h.36V1.194l.24.876a.19.19 0 0 0 .174.132c.018 0 .03 0 .048-.006.084-.024.138-.132.114-.228" style="fill:#91ac3b;fill-rule:nonzero" transform="matrix(19.4259 0 0 19.7595 6.956 26.066)"/><path d="m1.755 1.944.27-.996a.4.4 0 0 1 .072-.144 1 1 0 0 0-.342-.192 1 1 0 0 0-.324-.054 1 1 0 0 0-.324.054Q.864.695.693.876a.3.3 0 0 0-.054.096l-.27 1.002c-.024.096.024.204.126.228a.186.186 0 0 0 .222-.126l.24-.876v3.054h.36V2.538h.24v1.71h.36V2.304a.316.316 0 0 1-.162-.36" style="fill:#91ac3b;fill-rule:nonzero" transform="matrix(19.4259 0 0 19.7595 6.956 25.947)"/><path d="M5.505 1.968 5.229.972a.25.25 0 0 0-.054-.096 1.04 1.04 0 0 0-.738-.318 1 1 0 0 0-.324.054 1.1 1.1 0 0 0-.342.192.34.34 0 0 1 .072.138l.27.996c.042.15-.036.3-.162.36v1.95h.36V2.532h.24v1.71h.36V1.194l.24.876a.19.19 0 0 0 .174.132c.018 0 .03 0 .048-.006.102-.024.156-.132.132-.228" style="fill:#91ac3b;fill-rule:nonzero" transform="matrix(19.4259 0 0 19.7595 6.956 26.066)"/></svg>