<svg viewBox="0 0 128 128" xmlns="http://www.w3.org/2000/svg" xml:space="preserve" style="fill-rule:evenodd;clip-rule:evenodd;stroke-linejoin:round;stroke-miterlimit:2"><path d="M4.733 4.454v-.48l.705.06-.47-.724.288.077-.339-.517.209.027-.498-.725-.256.374-.508-.78.325.04-.772-1.14-.772 1.14.325-.041-.529.811.447-.12-.731 1.137 1.08-.204v.739c-.355.008-.687.085-.945.251.24.124.494.339.725.698h2.56c-.193-.245-.494-.46-.844-.623m-.376-1.887-.175.256-.24-.369zm-.193.934-.346.533.679-.06v.383a3.6 3.6 0 0 0-.96-.218v-.75z" style="fill:#91ac3b;fill-rule:nonzero" transform="matrix(22.3483 0 0 22.6696 -1.63 -1.094)"/><path d="M1.988 2.646h-.011v-.208l.3.06-.22-.404.16.044-.189-.287.116.014-.287-.387-.264.386.115-.014-.101.155-.225-.36.247.067-.292-.445.18.022-.428-.623-.427.622.18-.022-.292.444.247-.066-.404.623.564-.069v.6a2.1 2.1 0 0 0-.66.48H2.8c-.272-.381-.566-.556-.812-.632m-.851.082v-.53l.471.054-.111.246.3-.06v.193a2 2 0 0 0-.66.097" style="fill:#91ac3b;fill-rule:nonzero" transform="matrix(22.3483 0 0 22.6696 -1.63 39.684)"/></svg>