<svg viewBox="0 0 1376 1376" xmlns="http://www.w3.org/2000/svg" xml:space="preserve" style="fill-rule:evenodd;clip-rule:evenodd;stroke-linejoin:round;stroke-miterlimit:2"><path d="m1818.78 292.31-1.9 671.25-671.24-1.9c1.05-370.72 302.43-670.4 673.14-669.35" style="fill:#21496b;fill-rule:nonzero" transform="matrix(.9978 0 0 1.0004 -438.7445 -292.413)"/><path d="M1700.3 425.63c25.48 25.75 14.19 81.47-10.47 105.88s-65.32 23.32-90.81-2.43-26.16-66.41-1.49-90.82 77.28-38.38 102.77-12.63m-338.55 309.85c10.2 12.56 94.85-78 151.17-123.74s89.59-63.52 80.45-76.86-36.22-3.17-137.85 78.45c-56.52 45.43-103.96 109.59-93.77 122.15m73.12 42.34c12.65 10.08 60.48-60.86 105.69-117.6s90-100.35 77.3-110.43-57.88 36.32-103.09 93.07-92.55 124.88-79.9 134.96m105.29 46.45c14.25 7.66 18.08-42.55 52.44-106.45s65.19-151.57 51-159.23-39.88 45.63-74.25 109.53-43.43 148.49-29.19 156.15m87.43 30.91c16.12 1.31 56.58-95.49 62.48-167.8s-11.32-124.44-27.44-125.76-1.12 70.51-7 142.81-44.16 149.43-28.04 150.75m113.59-40.7c15.57-4.37 30.61-79.75 11-149.61s-48.11-122.93-63.68-118.56 5.93 43.82 25.5 113.69 11.61 158.85 27.18 154.48" style="fill:#fff;fill-rule:nonzero" transform="matrix(.9978 0 0 1.0004 -438.7445 -292.413)"/><path d="M1347.58 699.52c-10-12.7 48.3-99.92 105.3-144.81s110-59.35 120-46.64-58.13 39.91-115.13 84.79-100.17 119.37-110.17 106.66m-22.97-91.88c-6.7-14.72 41.22-74.83 107.25-104.89s125-42.5 131.69-27.78-37.32 23.73-103.34 53.79-128.9 93.59-135.6 78.88m225.23 69.76c-19.82 33.57-37.73 68.31-54.1 103.67-12.48 26.284-23.47 53.254-32.9 80.78-7.83 21.19-16.77 41.78-25.55 62.65-5.18 11.92-10.11 23.94-16 35.94l-2-.47c0-5 .22-10 .58-15 2.59-28.07 9.03-55.652 19.13-81.97 7.27-18.42 16.78-35.9 25.68-53.52 6-11.72 12.21-23.303 18.62-34.75a920.5 920.5 0 0 1 53-82.78c3.86-5.29 7.75-10.54 11.79-15.71l1.73 1.2z" style="fill:#fff;fill-rule:nonzero" transform="matrix(.9978 0 0 1.0004 -438.7445 -292.413)"/><path d="M1018.85 899.05c10.43-7.81 15.71-28.69 16.2-51 .24-11.1.62-28.69-10.09-36.34 0 0-3.34-2.39-24.93-6.89 1.38-10.52-4.61-68.67-30-94.53-5.05-5.14-14.36-4.66-22.76 3.14s-2 42.26-20 10.43-20.17-70.26-20.17-70.26.26-30.61-1.86-47.09c-2.85-22.51-51.24-74.31-71.49-9.66 0 0-6.59 52.32-32.93 3.62L751.48 500.2s-52.48-83.06-63.22-21.54c0 0 .25 71.1-36.65 20.41 0 0-35.09-68.93-78.7-11.57 0 0-19.4-26-35.8 1.44 0 0-7.33 6.92-20-3 0 0-32.16-25.6-39.06 1.32 0 0-16.37 7.64 4.62 29.64 0 0 12.15 13.77-3.49 18.47 0 0-25.75 10.2 12.67 24.81 0 0 35.25 7.15-13.3 33.56 0 0-38.47 25.8 21 53.7 0 0 51.9 12.6 47.78 36.38 0 0-6.9 19.33-26.87 24.62 0 0-46 5 3.61 43.65 0 0 19.35 16.22 64.71 22l37.22 3.44s82 16.4 10.86 28.66c0 0-31.13 6-27.73 23.54 4.76 24.63 59.22 44.16 101.6 28.11 0 0 54.58-8.28 29.91 18.22s-13.85 51.42 44.16 41.13l75.2-21.91s46.33-19.85 33.86 17.35c0 0-14.44 43.5 56 20.13 1.8-.6 40.99-12.76 68.99-33.71" style="fill:#91ae3d;fill-rule:nonzero" transform="matrix(.9978 0 0 1.0004 -438.7445 -292.413)"/><path d="M956.81 870.32s-217.38-126.16-377.62-295" style="fill:#fff;fill-rule:nonzero" transform="matrix(.9978 0 0 1.0004 -438.7445 -292.413)"/><path d="M961.82 633.32c4.48 2.83 13.2 1.79 21.78-1.28 4.26-1.52 11-3.94 12.36-9.13 0 0 .42-1.62-1-10.49 4.2-1 25.46-11.75 31.61-25.17 1.22-2.67-.32-6.14-4.51-8.2s-16.37 5.41-6.88-6.09 23.8-17.91 23.8-17.91 11.68-4.36 17.64-7.57c8.12-4.36 20.79-30.34-6.75-28.61 0 0-20.87 5.11-6.18-12l31-33.38s24-32.08-1-27.19c0 0-27 10.45-13.1-11 0 0 21.12-23.4-7.06-31.64 0 0 7.06-11.16-5.76-13.41 0 0-3.7-1.78-1.78-8.06 0 0 5-16-6.2-14.67 0 0-5.29-5.12-10.6 6.07 0 0-3.47 6.64-7.54 1.37 0 0-7.63-8.32-7.6 8.43 0 0 2.42 14.46-14.7-.17 0 0-15.42-10.88-17.38 15.82 0 0 2.77 21.58-6.88 23.48 0 0-8.36.19-13.28-6.64 0 0-8.61-16.76-16.09 7.73 0 0-3.35 9.73 1 27.83l4.14 14.65s5.71 33.61-9.32 8.31c0 0-6.82-11-13-7.12-8.68 5.4-8.18 29 4.1 42.76 0 0 11.1 19.56-2.58 14s-21.58 2.22-9.22 22.79l19.3 25.44s14.3 14.74-1.67 15.41c0 0-18.66.84.49 24.23.47.66 10.81 13.8 22.86 21.41" style="fill:#91ae3d;fill-rule:nonzero" transform="matrix(.9978 0 0 1.0004 -438.7445 -292.413)"/><path d="M960.54 613.94S979 508 1023.32 419" style="fill:#fff;fill-rule:nonzero" transform="matrix(.9978 0 0 1.0004 -438.7445 -292.413)"/><g transform="matrix(.9978 0 0 1.0004 -438.7445 -292.413)"><clipPath id="a"><path d="M1145.64 1667c370.64 0 671.11-300.47 671.11-671.12h-671.11z"/></clipPath><g clip-path="url(#a)"><path d="m890.014 1453.27 649.076-649.075 60.97 60.974-649.072 649.071zm-64.908-134.55L1407.5 736.327l56.29 56.292-582.391 582.391zm164.986 242.35 672.928-672.93 60.98 60.974-672.93 672.936zm56.978 152.76 780.97-780.975 60.97 60.974-780.97 780.971zm122.09 85.13 780.97-780.97 60.98 60.97-780.98 780.97z" style="fill:#91ae3d;fill-rule:nonzero"/><path d="m850.749 1406.67 634.831-634.822 42.92 42.929L893.678 1449.6zm96.416 111.47 642.995-642.997 42.93 42.929-642.996 642.998zm105.185 103.42 727.41-727.409 42.92 42.928-727.4 727.411zm102.67 105.21 742.76-742.763 42.93 42.933-742.76 742.75z" style="fill:#fff;fill-rule:nonzero"/></g></g><path d="M439.72 1666.89c0-370.72 300.52-671.25 671.25-671.25v671.25z" style="fill:#d4d939;fill-rule:nonzero" transform="matrix(.9978 0 0 1.0004 -438.7445 -292.413)"/><path d="M1102.77 995.17s12 121-417.06 276.71c-236.63 85.88-222.8 395.93-222.8 395.93l400.09-.39s-44.92-208.15 155-392.86c99.6-92 93.53-279.47 93.53-279.47z" style="fill:#21496b;fill-rule:nonzero" transform="matrix(.9978 0 0 1.0004 -438.7445 -292.413)"/></svg>