<svg viewBox="0 0 128 128" xmlns="http://www.w3.org/2000/svg" xml:space="preserve" style="fill-rule:evenodd;clip-rule:evenodd;stroke-linejoin:round;stroke-miterlimit:2"><path d="M4.677 2.766a.12.12 0 0 1-.12-.12.12.12 0 0 1 .12-.12.12.12 0 0 1 .12.12.12.12 0 0 1-.12.12m-1.02-.72c-.144 0-.3.012-.456.036l-.864-.456s.006.348.132.612c-.516.132-1.002.288-1.332.288l-.84-.48c0 .33.18.84.18.84s-.18.51-.18.84l.84-.48c.33 0 .816.156 1.332.288-.126.264-.132.612-.132.612l.864-.456c.156.024.312.036.456.036.762 0 1.92-.57 1.92-.84s-1.158-.84-1.92-.84" style="fill:#91ac3b;fill-rule:nonzero" transform="matrix(20.8332 0 0 17.4603 2.82 13.613)"/></svg>