<svg viewBox="0 0 1376 1376" xmlns="http://www.w3.org/2000/svg" xml:space="preserve" style="fill-rule:evenodd;clip-rule:evenodd;stroke-linejoin:round;stroke-miterlimit:2"><path d="m1819 292-2 672-671-2c1-371 302-671 673-670" style="fill:#21496b;fill-rule:nonzero" transform="translate(-439 -292)"/><path d="M1700 426c26 25 14 81-10 106s-65 23-91-3-26-66-1-91 77-38 102-12m-338 309c10 13 95-78 151-123s90-64 80-77-36-3-137 78c-57 46-104 110-94 122m73 43c13 10 60-61 106-118s90-100 77-110-58 36-103 93-93 125-80 135m105 46c14 8 18-42 53-106s65-152 51-159-40 45-75 109-43 149-29 156m88 31c16 1 56-95 62-168s-11-124-27-125-1 70-7 142-45 150-28 151m113-41c16-4 31-79 11-149s-48-123-63-119 5 44 25 114 12 159 27 154" style="fill:#fff;fill-rule:nonzero" transform="translate(-439 -292)"/><path d="M1348 700c-10-13 48-100 105-145s110-60 120-47-58 40-115 85-100 119-110 107m-23-92c-7-15 41-75 107-105s125-43 132-28-38 24-104 54-129 93-135 79m225 69a1173 1173 0 0 0-87 185l-26 62-16 36h-2l1-15q4-42 19-82 12-27 26-54l18-34a921 921 0 0 1 53-83l12-16z" style="fill:#fff;fill-rule:nonzero" transform="translate(-439 -292)"/><path d="M1019 899c10-8 16-29 16-51 0-11 1-29-10-36 0 0-3-3-25-7 1-11-5-69-30-95q-9-7-23 3c-14 10-2 43-20 11s-20-70-20-70 0-31-2-47c-3-23-51-75-71-10 0 0-7 52-33 3l-50-100s-52-83-63-21c0 0 1 71-36 20 0 0-35-69-79-12 0 1-19-25-36 2 0 0-7 7-20-3 0 0-32-26-39 1 0 0-16 8 5 30 0 0 12 14-4 18 0 0-26 11 13 25 0 0 35 7-13 34 0 0-39 26 21 53 0 0 51 13 47 37 0 0-7 19-27 24 0 0-46 5 4 44 0 0 19 16 65 22l37 4s82 16 11 28c0 0-31 6-28 24 5 24 59 44 102 28 0 0 54-8 30 18s-14 51 44 41l75-22s46-20 34 18c0 0-15 43 56 20 2-1 41-13 69-34" style="fill:#91ae3d;fill-rule:nonzero" transform="translate(-439 -292)"/><path d="M957 870S739 744 579 575" style="fill:#fff;fill-rule:nonzero" transform="translate(-439 -292)"/><path d="M962 633q7 4 22-1c4-1 11-4 12-9l-1-11c4-1 25-11 32-25q1-4-5-8c-6-4-16 5-7-6s24-18 24-18l18-8c8-4 20-30-7-28 0 0-21 5-6-12l31-34s24-32-1-27c0 0-27 11-13-11 0 0 21-23-7-31 0 0 7-11-6-14 0 0-4-2-2-8 0 0 5-16-6-14 0 0-5-6-11 6 0 0-3 6-7 1 0 0-8-8-8 8 0 0 2 15-15 0 0 0-15-11-17 16 0 0 3 22-7 24 0 0-8 0-13-7 0 0-9-17-16 8 0 0-4 9 1 27l4 15s6 34-9 8c0 0-7-11-13-7-9 6-9 29 4 43 0 0 11 20-3 14s-22 2-9 23l19 25s14 15-2 16c0 0-18 1 1 24 0 1 11 14 23 21" style="fill:#91ae3d;fill-rule:nonzero" transform="translate(-439 -292)"/><path d="M961 614s18-106 62-195" style="fill:#fff;fill-rule:nonzero" transform="translate(-439 -292)"/><g transform="translate(-439 -292)"><clipPath id="a"><path d="M1146 1667c370 0 671-300 671-671h-671z"/></clipPath><g clip-path="url(#a)"><path d="m890 1453 649-649 61 61-649 649zm-65-134 583-583 56 57-583 582zm165 242 673-673 61 61-673 673zm57 153 781-781 61 61-781 781zm122 85 781-781 61 61-781 781z" style="fill:#91ae3d;fill-rule:nonzero"/><path d="m851 1407 635-635 42 43-634 635zm96 111 643-643 43 43-643 643zm105 104 728-728 43 43-728 727zm103 105 743-743 43 43-743 743z" style="fill:#fff;fill-rule:nonzero"/></g></g><path d="M440 1667c0-371 300-671 671-671v671z" style="fill:#d4d939;fill-rule:nonzero" transform="translate(-439 -292)"/><path d="M1103 995s12 121-417 277c-237 86-223 396-223 396l400-1s-45-208 155-392c100-92 94-280 94-280z" style="fill:#21496b;fill-rule:nonzero" transform="translate(-439 -292)"/></svg>